<svg xmlns="http://www.w3.org/2000/svg" xmlns:xlink="http://www.w3.org/1999/xlink" width="157" zoomAndPan="magnify" viewBox="0 0 117.75 30.000001" height="40" preserveAspectRatio="xMidYMid meet" version="1.0"><defs><g/></defs><path fill="#ffbe0b" d="M 15.046875 10.289062 C 14.722656 9.960938 14.191406 9.960938 13.863281 10.289062 C 13.539062 10.613281 13.539062 11.144531 13.863281 11.472656 L 15.402344 13.007812 C 15.730469 13.335938 16.257812 13.335938 16.585938 13.007812 C 16.914062 12.683594 16.914062 12.152344 16.585938 11.824219 L 15.046875 10.289062 " fill-opacity="1" fill-rule="nonzero"/><path fill="#ffbe0b" d="M 15.628906 15.316406 C 15.78125 15.164062 15.875 14.953125 15.875 14.722656 C 15.875 14.261719 15.5 13.886719 15.039062 13.886719 L 12.863281 13.886719 C 12.402344 13.886719 12.027344 14.261719 12.027344 14.722656 C 12.027344 15.1875 12.402344 15.5625 12.863281 15.5625 L 15.039062 15.5625 C 15.269531 15.5625 15.480469 15.46875 15.628906 15.316406 " fill-opacity="1" fill-rule="nonzero"/><path fill="#ffbe0b" d="M 15.402344 16.441406 L 13.863281 17.976562 C 13.539062 18.304688 13.539062 18.832031 13.863281 19.160156 C 14.191406 19.488281 14.722656 19.488281 15.046875 19.160156 L 16.585938 17.621094 C 16.914062 17.296875 16.914062 16.765625 16.585938 16.441406 C 16.257812 16.113281 15.730469 16.113281 15.402344 16.441406 " fill-opacity="1" fill-rule="nonzero"/><path fill="#ffbe0b" d="M 18.894531 12.054688 C 19.042969 11.902344 19.136719 11.691406 19.136719 11.460938 L 19.136719 9.285156 C 19.136719 8.824219 18.761719 8.449219 18.300781 8.449219 C 17.839844 8.449219 17.464844 8.824219 17.464844 9.285156 L 17.464844 11.460938 C 17.464844 11.921875 17.839844 12.296875 18.300781 12.296875 C 18.53125 12.296875 18.742188 12.203125 18.894531 12.054688 " fill-opacity="1" fill-rule="nonzero"/><path fill="#ffbe0b" d="M 21.199219 13.007812 L 22.738281 11.472656 C 23.0625 11.144531 23.0625 10.613281 22.738281 10.289062 C 22.410156 9.960938 21.882812 9.960938 21.554688 10.289062 L 20.015625 11.824219 C 19.691406 12.152344 19.691406 12.683594 20.015625 13.007812 C 20.34375 13.335938 20.875 13.335938 21.199219 13.007812 " fill-opacity="1" fill-rule="nonzero"/><path fill="#ff5757" d="M 29.699219 17.589844 L 27.386719 16.828125 C 28.117188 13.699219 27.199219 10.429688 24.898438 8.128906 C 21.261719 4.488281 15.34375 4.488281 11.703125 8.128906 C 8.066406 11.765625 8.066406 17.683594 11.703125 21.320312 C 14.007812 23.625 17.277344 24.539062 20.40625 23.8125 L 21.164062 26.121094 C 17.160156 27.132812 12.945312 25.984375 9.992188 23.03125 C 5.410156 18.453125 5.410156 10.996094 9.992188 6.414062 C 14.574219 1.835938 22.027344 1.835938 26.609375 6.414062 C 29.5625 9.367188 30.710938 13.582031 29.699219 17.589844 Z M 17.507812 14.984375 L 19.882812 22.214844 C 17.359375 22.75 14.742188 21.992188 12.886719 20.136719 C 9.902344 17.152344 9.902344 12.296875 12.886719 9.308594 C 15.871094 6.324219 20.730469 6.324219 23.714844 9.308594 C 25.570312 11.164062 26.324219 13.78125 25.789062 16.304688 L 18.5625 13.929688 C 17.914062 13.714844 17.292969 14.332031 17.507812 14.984375 Z M 26.378906 20.015625 C 25.910156 20.300781 25.832031 20.945312 26.214844 21.328125 L 28.324219 23.433594 L 27.011719 24.746094 L 24.902344 22.636719 C 24.519531 22.253906 23.875 22.332031 23.59375 22.800781 L 22.460938 24.699219 L 19.613281 16.035156 L 28.277344 18.882812 Z M 27.792969 5.234375 C 22.558594 0 14.042969 0 8.808594 5.234375 C 3.574219 10.464844 3.574219 18.980469 8.808594 24.214844 C 12.367188 27.773438 17.527344 29.03125 22.320312 27.53125 C 22.855469 27.34375 22.792969 27.402344 24.480469 24.582031 L 26.421875 26.519531 C 26.746094 26.847656 27.277344 26.847656 27.601562 26.519531 L 30.097656 24.027344 C 30.421875 23.699219 30.421875 23.167969 30.097656 22.84375 L 28.15625 20.902344 C 30.867188 19.316406 30.9375 19.269531 31.105469 18.742188 C 32.609375 13.949219 31.351562 8.789062 27.792969 5.234375 " fill-opacity="1" fill-rule="nonzero"/><g fill="#000e4d" fill-opacity="1"><g transform="translate(32.609323, 18.270692)"><g><path d="M 3.453125 -6.925781 L 0.792969 -6.925781 L 0.792969 0 L 2.285156 0 L 2.285156 -2.15625 L 3.453125 -2.15625 C 4.847656 -2.15625 5.894531 -3.175781 5.894531 -4.539062 C 5.894531 -5.90625 4.835938 -6.925781 3.453125 -6.925781 Z M 3.382812 -3.542969 L 2.285156 -3.542969 L 2.285156 -5.53125 L 3.382812 -5.53125 C 3.976562 -5.53125 4.382812 -5.113281 4.382812 -4.539062 C 4.382812 -3.964844 3.976562 -3.542969 3.382812 -3.542969 Z M 3.382812 -3.542969 "/></g></g></g><g fill="#000e4d" fill-opacity="1"><g transform="translate(39.770945, 18.270692)"><g><path d="M 3.421875 -5.371094 C 2.730469 -5.371094 2.253906 -5.152344 1.871094 -4.679688 L 1.613281 -5.339844 L 0.691406 -5.339844 L 0.691406 0 L 2.136719 0 L 2.136719 -2.769531 C 2.136719 -3.640625 2.453125 -4.007812 3.265625 -4.007812 L 3.898438 -4.007812 L 3.898438 -5.371094 Z M 3.421875 -5.371094 "/></g></g></g><g fill="#000e4d" fill-opacity="1"><g transform="translate(44.805941, 18.270692)"><g><path d="M 3.226562 0.160156 C 4.875 0.160156 6.113281 -1.058594 6.113281 -2.671875 C 6.113281 -4.285156 4.875 -5.488281 3.226562 -5.488281 C 1.574219 -5.488281 0.335938 -4.285156 0.335938 -2.671875 C 0.335938 -1.058594 1.574219 0.160156 3.226562 0.160156 Z M 3.226562 -1.207031 C 2.394531 -1.207031 1.800781 -1.800781 1.800781 -2.671875 C 1.800781 -3.53125 2.394531 -4.136719 3.226562 -4.136719 C 4.054688 -4.136719 4.648438 -3.53125 4.648438 -2.671875 C 4.648438 -1.800781 4.054688 -1.207031 3.226562 -1.207031 Z M 3.226562 -1.207031 "/></g></g></g><g fill="#000e4d" fill-opacity="1"><g transform="translate(52.274192, 18.270692)"><g><path d="M 6.765625 -5.460938 C 6.082031 -5.460938 5.480469 -5.125 5.113281 -4.609375 C 4.796875 -5.144531 4.242188 -5.460938 3.5625 -5.460938 C 2.929688 -5.460938 2.34375 -5.152344 1.96875 -4.679688 L 1.703125 -5.339844 L 0.691406 -5.339844 L 0.691406 0 L 2.136719 0 L 2.136719 -2.886719 C 2.136719 -3.71875 2.523438 -4.195312 3.175781 -4.195312 C 3.691406 -4.195312 3.964844 -3.816406 3.964844 -3.105469 L 3.964844 0 L 5.371094 0 L 5.371094 -2.886719 C 5.371094 -3.71875 5.757812 -4.195312 6.398438 -4.195312 C 6.925781 -4.195312 7.203125 -3.816406 7.203125 -3.105469 L 7.203125 0 L 8.644531 0 L 8.644531 -3.34375 C 8.644531 -4.601562 7.875 -5.460938 6.765625 -5.460938 Z M 6.765625 -5.460938 "/></g></g></g><g fill="#000e4d" fill-opacity="1"><g transform="translate(62.561462, 18.270692)"><g><path d="M 3.226562 0.160156 C 4.875 0.160156 6.113281 -1.058594 6.113281 -2.671875 C 6.113281 -4.285156 4.875 -5.488281 3.226562 -5.488281 C 1.574219 -5.488281 0.335938 -4.285156 0.335938 -2.671875 C 0.335938 -1.058594 1.574219 0.160156 3.226562 0.160156 Z M 3.226562 -1.207031 C 2.394531 -1.207031 1.800781 -1.800781 1.800781 -2.671875 C 1.800781 -3.53125 2.394531 -4.136719 3.226562 -4.136719 C 4.054688 -4.136719 4.648438 -3.53125 4.648438 -2.671875 C 4.648438 -1.800781 4.054688 -1.207031 3.226562 -1.207031 Z M 3.226562 -1.207031 "/></g></g></g><g fill="#000e4d" fill-opacity="1"><g transform="translate(70.029713, 18.270692)"><g><path d="M 3.964844 0.160156 C 5.679688 0.160156 7.023438 -0.988281 7.339844 -2.699219 L 5.828125 -2.699219 C 5.578125 -1.828125 4.875 -1.277344 3.964844 -1.277344 C 2.789062 -1.277344 1.910156 -2.207031 1.910156 -3.453125 C 1.910156 -4.699219 2.789062 -5.636719 3.964844 -5.636719 C 4.835938 -5.636719 5.53125 -5.125 5.816406 -4.3125 L 7.308594 -4.3125 C 6.992188 -5.953125 5.648438 -7.074219 3.964844 -7.074219 C 1.929688 -7.074219 0.386719 -5.511719 0.386719 -3.453125 C 0.386719 -1.40625 1.929688 0.160156 3.964844 0.160156 Z M 3.964844 0.160156 "/></g></g></g><g fill="#000e4d" fill-opacity="1"><g transform="translate(78.665139, 18.270692)"><g><path d="M 0.691406 0 L 2.136719 0 L 2.136719 -7.261719 L 0.691406 -7.261719 Z M 0.691406 0 "/></g></g></g><g fill="#000e4d" fill-opacity="1"><g transform="translate(82.50329, 18.270692)"><g><path d="M 0.691406 -6.054688 L 2.125 -6.054688 L 2.125 -7.390625 L 0.691406 -7.390625 Z M 0.691406 0 L 2.136719 0 L 2.136719 -5.339844 L 0.691406 -5.339844 Z M 0.691406 0 "/></g></g></g><g fill="#000e4d" fill-opacity="1"><g transform="translate(86.34144, 18.270692)"><g><path d="M 5.09375 -5.339844 L 4.847656 -4.847656 C 4.390625 -5.253906 3.796875 -5.488281 3.136719 -5.488281 C 1.523438 -5.488281 0.335938 -4.285156 0.335938 -2.660156 C 0.335938 -1.039062 1.523438 0.167969 3.136719 0.167969 C 3.691406 0.167969 4.195312 0 4.609375 -0.285156 L 4.609375 1.929688 L 6.054688 1.929688 L 6.054688 -5.332031 Z M 3.253906 -1.195312 C 2.414062 -1.195312 1.800781 -1.828125 1.800781 -2.660156 C 1.800781 -3.5 2.414062 -4.125 3.253906 -4.125 C 4.09375 -4.125 4.707031 -3.5 4.707031 -2.660156 C 4.707031 -1.828125 4.09375 -1.195312 3.253906 -1.195312 Z M 3.253906 -1.195312 "/></g></g></g><g fill="#000e4d" fill-opacity="1"><g transform="translate(94.09654, 18.270692)"><g><path d="M 3.125 0.160156 C 4.640625 0.160156 5.636719 -0.8125 5.636719 -2.253906 L 5.636719 -5.339844 L 4.195312 -5.339844 L 4.195312 -2.414062 C 4.195312 -1.660156 3.796875 -1.207031 3.125 -1.207031 C 2.464844 -1.207031 2.058594 -1.652344 2.058594 -2.414062 L 2.058594 -5.339844 L 0.613281 -5.339844 L 0.613281 -2.253906 C 0.613281 -0.8125 1.621094 0.160156 3.125 0.160156 Z M 3.125 0.160156 "/></g></g></g><g fill="#000e4d" fill-opacity="1"><g transform="translate(101.366966, 18.270692)"><g><path d="M 5.875 -2.679688 C 5.875 -4.222656 4.75 -5.488281 3.105469 -5.488281 C 1.523438 -5.488281 0.335938 -4.273438 0.335938 -2.671875 C 0.335938 -1.066406 1.535156 0.160156 3.105469 0.160156 C 4.351562 0.160156 5.371094 -0.582031 5.757812 -1.75 L 4.242188 -1.75 C 4.027344 -1.363281 3.609375 -1.128906 3.105469 -1.128906 C 2.402344 -1.128906 1.929688 -1.535156 1.800781 -2.265625 L 5.847656 -2.265625 C 5.867188 -2.402344 5.875 -2.542969 5.875 -2.679688 Z M 3.105469 -4.253906 C 3.757812 -4.253906 4.222656 -3.898438 4.429688 -3.246094 L 1.839844 -3.246094 C 2.007812 -3.878906 2.464844 -4.253906 3.105469 -4.253906 Z M 3.105469 -4.253906 "/></g></g></g><g fill="#000e4d" fill-opacity="1"><g transform="translate(108.587934, 18.270692)"><g><path d="M 2.582031 0.160156 C 3.9375 0.160156 4.828125 -0.554688 4.828125 -1.640625 C 4.828125 -2.949219 3.710938 -3.125 2.839844 -3.285156 C 2.285156 -3.382812 1.828125 -3.472656 1.828125 -3.828125 C 1.828125 -4.136719 2.097656 -4.332031 2.542969 -4.332031 C 3.046875 -4.332031 3.34375 -4.125 3.351562 -3.699219 L 4.726562 -3.699219 C 4.71875 -4.769531 3.867188 -5.488281 2.582031 -5.488281 C 1.296875 -5.488281 0.433594 -4.789062 0.433594 -3.777344 C 0.433594 -2.523438 1.523438 -2.296875 2.375 -2.148438 C 2.9375 -2.058594 3.402344 -1.949219 3.402344 -1.582031 C 3.402344 -1.226562 3.035156 -1.039062 2.640625 -1.039062 C 2.125 -1.039062 1.761719 -1.277344 1.75 -1.75 L 0.347656 -1.75 C 0.347656 -0.613281 1.246094 0.160156 2.582031 0.160156 Z M 2.582031 0.160156 "/></g></g></g><g fill="#3a86ff" fill-opacity="1"><g transform="translate(33.046483, 23.202577)"><g><path d="M 1.476562 -2.964844 L 0.339844 -2.964844 L 0.339844 0 L 0.976562 0 L 0.976562 -0.921875 L 1.476562 -0.921875 C 2.074219 -0.921875 2.523438 -1.359375 2.523438 -1.945312 C 2.523438 -2.527344 2.070312 -2.964844 1.476562 -2.964844 Z M 1.449219 -1.515625 L 0.976562 -1.515625 L 0.976562 -2.367188 L 1.449219 -2.367188 C 1.703125 -2.367188 1.875 -2.191406 1.875 -1.945312 C 1.875 -1.699219 1.703125 -1.515625 1.449219 -1.515625 Z M 1.449219 -1.515625 "/></g></g></g><g fill="#3a86ff" fill-opacity="1"><g transform="translate(39.067761, 23.202577)"><g><path d="M 1.96875 0 L 2.683594 0 L 2.027344 -1.117188 C 2.359375 -1.277344 2.570312 -1.59375 2.570312 -1.980469 C 2.570312 -2.554688 2.125 -2.964844 1.53125 -2.964844 L 0.339844 -2.964844 L 0.339844 0 L 0.976562 0 L 0.976562 -1.007812 L 1.390625 -1.007812 Z M 0.976562 -2.371094 L 1.492188 -2.371094 C 1.761719 -2.371094 1.917969 -2.207031 1.917969 -1.984375 C 1.917969 -1.761719 1.761719 -1.601562 1.492188 -1.601562 L 0.976562 -1.601562 Z M 0.976562 -2.371094 "/></g></g></g><g fill="#3a86ff" fill-opacity="1"><g transform="translate(45.254033, 23.202577)"><g><path d="M 1.746094 0.0664062 C 2.648438 0.0664062 3.320312 -0.597656 3.320312 -1.480469 C 3.320312 -2.363281 2.648438 -3.027344 1.746094 -3.027344 C 0.839844 -3.027344 0.160156 -2.359375 0.160156 -1.480469 C 0.160156 -0.601562 0.839844 0.0664062 1.746094 0.0664062 Z M 1.746094 -0.539062 C 1.214844 -0.539062 0.8125 -0.949219 0.8125 -1.480469 C 0.8125 -2.015625 1.214844 -2.421875 1.746094 -2.421875 C 2.273438 -2.421875 2.667969 -2.019531 2.667969 -1.480469 C 2.667969 -0.945312 2.273438 -0.539062 1.746094 -0.539062 Z M 1.746094 -0.539062 "/></g></g></g><g fill="#3a86ff" fill-opacity="1"><g transform="translate(52.125662, 23.202577)"><g><path d="M 3.96875 0 L 3.511719 -2.964844 L 2.867188 -2.964844 L 2.0625 -1.144531 L 1.257812 -2.964844 L 0.617188 -2.964844 L 0.152344 0 L 0.804688 0 L 1.097656 -1.929688 L 1.980469 -0.00390625 L 2.140625 -0.00390625 L 3.023438 -1.929688 L 3.316406 0 Z M 3.96875 0 "/></g></g></g><g fill="#3a86ff" fill-opacity="1"><g transform="translate(59.640342, 23.202577)"><g><path d="M 1.746094 0.0664062 C 2.648438 0.0664062 3.320312 -0.597656 3.320312 -1.480469 C 3.320312 -2.363281 2.648438 -3.027344 1.746094 -3.027344 C 0.839844 -3.027344 0.160156 -2.359375 0.160156 -1.480469 C 0.160156 -0.601562 0.839844 0.0664062 1.746094 0.0664062 Z M 1.746094 -0.539062 C 1.214844 -0.539062 0.8125 -0.949219 0.8125 -1.480469 C 0.8125 -2.015625 1.214844 -2.421875 1.746094 -2.421875 C 2.273438 -2.421875 2.667969 -2.019531 2.667969 -1.480469 C 2.667969 -0.945312 2.273438 -0.539062 1.746094 -0.539062 Z M 1.746094 -0.539062 "/></g></g></g><g fill="#3a86ff" fill-opacity="1"><g transform="translate(66.511969, 23.202577)"><g><path d="M 3.140625 -1.15625 L 2.496094 -1.15625 C 2.386719 -0.785156 2.085938 -0.546875 1.699219 -0.546875 C 1.195312 -0.546875 0.816406 -0.945312 0.816406 -1.476562 C 0.816406 -2.011719 1.195312 -2.414062 1.699219 -2.414062 C 2.070312 -2.414062 2.367188 -2.195312 2.488281 -1.847656 L 3.128906 -1.847656 C 2.996094 -2.550781 2.417969 -3.027344 1.699219 -3.027344 C 0.824219 -3.027344 0.164062 -2.359375 0.164062 -1.476562 C 0.164062 -0.671875 0.71875 -0.046875 1.480469 0.0507812 L 1.414062 0.34375 L 1.441406 0.371094 L 1.617188 0.371094 C 1.714844 0.371094 1.78125 0.433594 1.78125 0.515625 C 1.78125 0.601562 1.714844 0.660156 1.617188 0.660156 L 1.316406 0.660156 L 1.316406 0.96875 L 1.621094 0.96875 C 1.960938 0.96875 2.203125 0.792969 2.203125 0.519531 C 2.203125 0.316406 2.0625 0.179688 1.84375 0.128906 L 1.859375 0.0585938 C 2.515625 -0.0078125 3.015625 -0.480469 3.140625 -1.15625 Z M 3.140625 -1.15625 "/></g></g></g><g fill="#3a86ff" fill-opacity="1"><g transform="translate(73.163607, 23.202577)"><g><path d="M 2.042969 -3.226562 C 2.34375 -3.226562 2.527344 -3.449219 2.527344 -3.804688 L 2.527344 -3.851562 L 2.183594 -3.851562 L 2.183594 -3.8125 C 2.183594 -3.707031 2.121094 -3.636719 2.03125 -3.636719 C 1.953125 -3.636719 1.890625 -3.679688 1.816406 -3.730469 C 1.722656 -3.796875 1.617188 -3.871094 1.449219 -3.871094 C 1.140625 -3.871094 0.957031 -3.644531 0.957031 -3.292969 L 0.957031 -3.25 L 1.300781 -3.25 L 1.300781 -3.28125 C 1.300781 -3.382812 1.367188 -3.453125 1.453125 -3.453125 C 1.507812 -3.453125 1.566406 -3.414062 1.640625 -3.371094 C 1.746094 -3.308594 1.867188 -3.226562 2.042969 -3.226562 Z M 1.746094 0.0664062 C 2.648438 0.0664062 3.320312 -0.597656 3.320312 -1.480469 C 3.320312 -2.363281 2.648438 -3.027344 1.746094 -3.027344 C 0.839844 -3.027344 0.160156 -2.359375 0.160156 -1.480469 C 0.160156 -0.601562 0.839844 0.0664062 1.746094 0.0664062 Z M 1.746094 -0.539062 C 1.214844 -0.539062 0.8125 -0.949219 0.8125 -1.480469 C 0.8125 -2.015625 1.214844 -2.421875 1.746094 -2.421875 C 2.273438 -2.421875 2.667969 -2.019531 2.667969 -1.480469 C 2.667969 -0.945312 2.273438 -0.539062 1.746094 -0.539062 Z M 1.746094 -0.539062 "/></g></g></g><g fill="#3a86ff" fill-opacity="1"><g transform="translate(80.035234, 23.202577)"><g><path d="M 0.976562 -0.59375 L 0.976562 -1.203125 L 2.007812 -1.203125 L 2.007812 -1.78125 L 0.976562 -1.78125 L 0.976562 -2.371094 L 2.117188 -2.371094 L 2.117188 -2.964844 L 0.339844 -2.964844 L 0.339844 0 L 2.164062 0 L 2.164062 -0.59375 Z M 0.976562 -0.59375 "/></g></g></g><g fill="#3a86ff" fill-opacity="1"><g transform="translate(85.789983, 23.202577)"><g><path d="M 1.320312 0.0585938 C 1.933594 0.0585938 2.445312 -0.25 2.445312 -0.890625 C 2.445312 -1.554688 1.875 -1.695312 1.425781 -1.808594 C 1.109375 -1.882812 0.855469 -1.949219 0.855469 -2.15625 C 0.855469 -2.351562 1.0625 -2.4375 1.269531 -2.4375 C 1.511719 -2.4375 1.722656 -2.320312 1.722656 -2.0625 L 2.355469 -2.0625 C 2.355469 -2.65625 1.96875 -3.019531 1.289062 -3.019531 C 0.632812 -3.019531 0.210938 -2.699219 0.210938 -2.128906 C 0.210938 -1.492188 0.753906 -1.359375 1.203125 -1.25 C 1.523438 -1.175781 1.796875 -1.113281 1.796875 -0.882812 C 1.796875 -0.660156 1.558594 -0.535156 1.316406 -0.535156 C 1.054688 -0.535156 0.816406 -0.671875 0.816406 -0.957031 L 0.167969 -0.957031 C 0.167969 -0.320312 0.640625 0.0585938 1.320312 0.0585938 Z M 1.320312 0.0585938 "/></g></g></g></svg>