<svg xmlns="http://www.w3.org/2000/svg" xmlns:xlink="http://www.w3.org/1999/xlink" width="157" zoomAndPan="magnify" viewBox="0 0 117.75 30.000001" height="40" preserveAspectRatio="xMidYMid meet" version="1.0"><defs><g/></defs><path fill="#ffbe0b" d="M 15.046875 10.289062 C 14.722656 9.960938 14.191406 9.960938 13.863281 10.289062 C 13.539062 10.613281 13.539062 11.144531 13.863281 11.472656 L 15.402344 13.007812 C 15.730469 13.335938 16.257812 13.335938 16.585938 13.007812 C 16.914062 12.683594 16.914062 12.152344 16.585938 11.824219 L 15.046875 10.289062 " fill-opacity="1" fill-rule="nonzero"/><path fill="#ffbe0b" d="M 15.628906 15.316406 C 15.78125 15.164062 15.875 14.953125 15.875 14.722656 C 15.875 14.261719 15.5 13.886719 15.039062 13.886719 L 12.863281 13.886719 C 12.402344 13.886719 12.027344 14.261719 12.027344 14.722656 C 12.027344 15.1875 12.402344 15.5625 12.863281 15.5625 L 15.039062 15.5625 C 15.269531 15.5625 15.480469 15.46875 15.628906 15.316406 " fill-opacity="1" fill-rule="nonzero"/><path fill="#ffbe0b" d="M 15.402344 16.441406 L 13.863281 17.976562 C 13.539062 18.304688 13.539062 18.832031 13.863281 19.160156 C 14.191406 19.488281 14.722656 19.488281 15.046875 19.160156 L 16.585938 17.621094 C 16.914062 17.296875 16.914062 16.765625 16.585938 16.441406 C 16.257812 16.113281 15.730469 16.113281 15.402344 16.441406 " fill-opacity="1" fill-rule="nonzero"/><path fill="#ffbe0b" d="M 18.894531 12.054688 C 19.042969 11.902344 19.136719 11.691406 19.136719 11.460938 L 19.136719 9.285156 C 19.136719 8.824219 18.761719 8.449219 18.300781 8.449219 C 17.839844 8.449219 17.464844 8.824219 17.464844 9.285156 L 17.464844 11.460938 C 17.464844 11.921875 17.839844 12.296875 18.300781 12.296875 C 18.53125 12.296875 18.742188 12.203125 18.894531 12.054688 " fill-opacity="1" fill-rule="nonzero"/><path fill="#ffbe0b" d="M 21.199219 13.007812 L 22.738281 11.472656 C 23.0625 11.144531 23.0625 10.613281 22.738281 10.289062 C 22.410156 9.960938 21.882812 9.960938 21.554688 10.289062 L 20.015625 11.824219 C 19.691406 12.152344 19.691406 12.683594 20.015625 13.007812 C 20.34375 13.335938 20.875 13.335938 21.199219 13.007812 " fill-opacity="1" fill-rule="nonzero"/><path fill="#ff5757" d="M 29.699219 17.589844 L 27.386719 16.828125 C 28.117188 13.699219 27.199219 10.429688 24.898438 8.128906 C 21.261719 4.488281 15.34375 4.488281 11.703125 8.128906 C 8.066406 11.765625 8.066406 17.683594 11.703125 21.320312 C 14.007812 23.625 17.277344 24.539062 20.40625 23.8125 L 21.164062 26.121094 C 17.160156 27.132812 12.945312 25.984375 9.992188 23.03125 C 5.410156 18.453125 5.410156 10.996094 9.992188 6.414062 C 14.574219 1.835938 22.027344 1.835938 26.609375 6.414062 C 29.5625 9.367188 30.710938 13.582031 29.699219 17.589844 Z M 17.507812 14.984375 L 19.882812 22.214844 C 17.359375 22.75 14.742188 21.992188 12.886719 20.136719 C 9.902344 17.152344 9.902344 12.296875 12.886719 9.308594 C 15.871094 6.324219 20.730469 6.324219 23.714844 9.308594 C 25.570312 11.164062 26.324219 13.78125 25.789062 16.304688 L 18.5625 13.929688 C 17.914062 13.714844 17.292969 14.332031 17.507812 14.984375 Z M 26.378906 20.015625 C 25.910156 20.300781 25.832031 20.945312 26.214844 21.328125 L 28.324219 23.433594 L 27.011719 24.746094 L 24.902344 22.636719 C 24.519531 22.253906 23.875 22.332031 23.59375 22.800781 L 22.460938 24.699219 L 19.613281 16.035156 L 28.277344 18.882812 Z M 27.792969 5.234375 C 22.558594 0 14.042969 0 8.808594 5.234375 C 3.574219 10.464844 3.574219 18.980469 8.808594 24.214844 C 12.367188 27.773438 17.527344 29.03125 22.320312 27.53125 C 22.855469 27.34375 22.792969 27.402344 24.480469 24.582031 L 26.421875 26.519531 C 26.746094 26.847656 27.277344 26.847656 27.601562 26.519531 L 30.097656 24.027344 C 30.421875 23.699219 30.421875 23.167969 30.097656 22.84375 L 28.15625 20.902344 C 30.867188 19.316406 30.9375 19.269531 31.105469 18.742188 C 32.609375 13.949219 31.351562 8.789062 27.792969 5.234375 " fill-opacity="1" fill-rule="nonzero"/><g fill="#000e4d" fill-opacity="1"><g transform="translate(32.609323, 18.785102)"><g><path d="M 2.894531 -5.804688 L 0.664062 -5.804688 L 0.664062 0 L 1.914062 0 L 1.914062 -1.808594 L 2.894531 -1.808594 C 4.0625 -1.808594 4.941406 -2.660156 4.941406 -3.804688 C 4.941406 -4.949219 4.054688 -5.804688 2.894531 -5.804688 Z M 2.835938 -2.96875 L 1.914062 -2.96875 L 1.914062 -4.636719 L 2.835938 -4.636719 C 3.332031 -4.636719 3.671875 -4.289062 3.671875 -3.804688 C 3.671875 -3.324219 3.332031 -2.96875 2.835938 -2.96875 Z M 2.835938 -2.96875 "/></g></g></g><g fill="#000e4d" fill-opacity="1"><g transform="translate(38.613241, 18.785102)"><g><path d="M 2.871094 -4.503906 C 2.289062 -4.503906 1.890625 -4.320312 1.566406 -3.921875 L 1.351562 -4.476562 L 0.582031 -4.476562 L 0.582031 0 L 1.792969 0 L 1.792969 -2.320312 C 1.792969 -3.050781 2.054688 -3.359375 2.738281 -3.359375 L 3.265625 -3.359375 L 3.265625 -4.503906 Z M 2.871094 -4.503906 "/></g></g></g><g fill="#000e4d" fill-opacity="1"><g transform="translate(42.83431, 18.785102)"><g><path d="M 2.703125 0.132812 C 4.089844 0.132812 5.125 -0.886719 5.125 -2.238281 C 5.125 -3.589844 4.089844 -4.601562 2.703125 -4.601562 C 1.320312 -4.601562 0.28125 -3.589844 0.28125 -2.238281 C 0.28125 -0.886719 1.320312 0.132812 2.703125 0.132812 Z M 2.703125 -1.011719 C 2.007812 -1.011719 1.507812 -1.507812 1.507812 -2.238281 C 1.507812 -2.960938 2.007812 -3.464844 2.703125 -3.464844 C 3.398438 -3.464844 3.898438 -2.960938 3.898438 -2.238281 C 3.898438 -1.507812 3.398438 -1.011719 2.703125 -1.011719 Z M 2.703125 -1.011719 "/></g></g></g><g fill="#000e4d" fill-opacity="1"><g transform="translate(49.095289, 18.785102)"><g><path d="M 5.671875 -4.578125 C 5.101562 -4.578125 4.59375 -4.296875 4.289062 -3.863281 C 4.023438 -4.3125 3.558594 -4.578125 2.984375 -4.578125 C 2.453125 -4.578125 1.964844 -4.320312 1.648438 -3.921875 L 1.425781 -4.476562 L 0.582031 -4.476562 L 0.582031 0 L 1.792969 0 L 1.792969 -2.421875 C 1.792969 -3.117188 2.113281 -3.515625 2.660156 -3.515625 C 3.09375 -3.515625 3.324219 -3.199219 3.324219 -2.605469 L 3.324219 0 L 4.503906 0 L 4.503906 -2.421875 C 4.503906 -3.117188 4.828125 -3.515625 5.367188 -3.515625 C 5.804688 -3.515625 6.039062 -3.199219 6.039062 -2.605469 L 6.039062 0 L 7.246094 0 L 7.246094 -2.804688 C 7.246094 -3.855469 6.601562 -4.578125 5.671875 -4.578125 Z M 5.671875 -4.578125 "/></g></g></g><g fill="#000e4d" fill-opacity="1"><g transform="translate(57.719582, 18.785102)"><g><path d="M 2.703125 0.132812 C 4.089844 0.132812 5.125 -0.886719 5.125 -2.238281 C 5.125 -3.589844 4.089844 -4.601562 2.703125 -4.601562 C 1.320312 -4.601562 0.28125 -3.589844 0.28125 -2.238281 C 0.28125 -0.886719 1.320312 0.132812 2.703125 0.132812 Z M 2.703125 -1.011719 C 2.007812 -1.011719 1.507812 -1.507812 1.507812 -2.238281 C 1.507812 -2.960938 2.007812 -3.464844 2.703125 -3.464844 C 3.398438 -3.464844 3.898438 -2.960938 3.898438 -2.238281 C 3.898438 -1.507812 3.398438 -1.011719 2.703125 -1.011719 Z M 2.703125 -1.011719 "/></g></g></g><g fill="#000e4d" fill-opacity="1"><g transform="translate(63.980562, 18.785102)"><g><path d="M 3.324219 0.132812 C 4.761719 0.132812 5.886719 -0.828125 6.152344 -2.265625 L 4.882812 -2.265625 C 4.675781 -1.535156 4.089844 -1.070312 3.324219 -1.070312 C 2.339844 -1.070312 1.601562 -1.847656 1.601562 -2.894531 C 1.601562 -3.9375 2.339844 -4.726562 3.324219 -4.726562 C 4.054688 -4.726562 4.636719 -4.296875 4.875 -3.617188 L 6.128906 -3.617188 C 5.863281 -4.992188 4.734375 -5.929688 3.324219 -5.929688 C 1.617188 -5.929688 0.324219 -4.621094 0.324219 -2.894531 C 0.324219 -1.175781 1.617188 0.132812 3.324219 0.132812 Z M 3.324219 0.132812 "/></g></g></g><g fill="#000e4d" fill-opacity="1"><g transform="translate(71.220038, 18.785102)"><g><path d="M 0.582031 0 L 1.792969 0 L 1.792969 -6.085938 L 0.582031 -6.085938 Z M 0.582031 0 "/></g></g></g><g fill="#000e4d" fill-opacity="1"><g transform="translate(74.437736, 18.785102)"><g><path d="M 0.582031 -5.074219 L 1.78125 -5.074219 L 1.78125 -6.195312 L 0.582031 -6.195312 Z M 0.582031 0 L 1.792969 0 L 1.792969 -4.476562 L 0.582031 -4.476562 Z M 0.582031 0 "/></g></g></g><g fill="#000e4d" fill-opacity="1"><g transform="translate(77.655434, 18.785102)"><g><path d="M 4.269531 -4.476562 L 4.0625 -4.0625 C 3.683594 -4.402344 3.183594 -4.601562 2.628906 -4.601562 C 1.277344 -4.601562 0.28125 -3.589844 0.28125 -2.230469 C 0.28125 -0.871094 1.277344 0.140625 2.628906 0.140625 C 3.09375 0.140625 3.515625 0 3.863281 -0.242188 L 3.863281 1.617188 L 5.074219 1.617188 L 5.074219 -4.46875 Z M 2.726562 -1.003906 C 2.023438 -1.003906 1.507812 -1.535156 1.507812 -2.230469 C 1.507812 -2.9375 2.023438 -3.457031 2.726562 -3.457031 C 3.433594 -3.457031 3.949219 -2.9375 3.949219 -2.230469 C 3.949219 -1.535156 3.433594 -1.003906 2.726562 -1.003906 Z M 2.726562 -1.003906 "/></g></g></g><g fill="#000e4d" fill-opacity="1"><g transform="translate(84.156892, 18.785102)"><g><path d="M 2.621094 0.132812 C 3.890625 0.132812 4.726562 -0.679688 4.726562 -1.890625 L 4.726562 -4.476562 L 3.515625 -4.476562 L 3.515625 -2.023438 C 3.515625 -1.394531 3.183594 -1.011719 2.621094 -1.011719 C 2.066406 -1.011719 1.726562 -1.386719 1.726562 -2.023438 L 1.726562 -4.476562 L 0.515625 -4.476562 L 0.515625 -1.890625 C 0.515625 -0.679688 1.359375 0.132812 2.621094 0.132812 Z M 2.621094 0.132812 "/></g></g></g><g fill="#000e4d" fill-opacity="1"><g transform="translate(90.252026, 18.785102)"><g><path d="M 4.925781 -2.246094 C 4.925781 -3.542969 3.980469 -4.601562 2.605469 -4.601562 C 1.277344 -4.601562 0.28125 -3.582031 0.28125 -2.238281 C 0.28125 -0.894531 1.285156 0.132812 2.605469 0.132812 C 3.648438 0.132812 4.503906 -0.488281 4.828125 -1.46875 L 3.558594 -1.46875 C 3.375 -1.144531 3.027344 -0.945312 2.605469 -0.945312 C 2.015625 -0.945312 1.617188 -1.285156 1.507812 -1.898438 L 4.902344 -1.898438 C 4.917969 -2.015625 4.925781 -2.132812 4.925781 -2.246094 Z M 2.605469 -3.566406 C 3.152344 -3.566406 3.542969 -3.265625 3.714844 -2.71875 L 1.542969 -2.71875 C 1.683594 -3.25 2.066406 -3.566406 2.605469 -3.566406 Z M 2.605469 -3.566406 "/></g></g></g><g fill="#000e4d" fill-opacity="1"><g transform="translate(96.305697, 18.785102)"><g><path d="M 2.164062 0.132812 C 3.300781 0.132812 4.046875 -0.464844 4.046875 -1.375 C 4.046875 -2.472656 3.109375 -2.621094 2.378906 -2.753906 C 1.914062 -2.835938 1.535156 -2.910156 1.535156 -3.210938 C 1.535156 -3.464844 1.757812 -3.632812 2.132812 -3.632812 C 2.554688 -3.632812 2.804688 -3.457031 2.8125 -3.101562 L 3.964844 -3.101562 C 3.957031 -3.996094 3.242188 -4.601562 2.164062 -4.601562 C 1.085938 -4.601562 0.363281 -4.015625 0.363281 -3.167969 C 0.363281 -2.113281 1.277344 -1.925781 1.992188 -1.800781 C 2.464844 -1.726562 2.851562 -1.632812 2.851562 -1.328125 C 2.851562 -1.027344 2.546875 -0.871094 2.214844 -0.871094 C 1.78125 -0.871094 1.476562 -1.070312 1.46875 -1.46875 L 0.289062 -1.46875 C 0.289062 -0.515625 1.042969 0.132812 2.164062 0.132812 Z M 2.164062 0.132812 "/></g></g></g><g fill="#3a86ff" fill-opacity="1"><g transform="translate(33.046483, 22.327181)"><g><path d="M 1.097656 -2.203125 L 0.25 -2.203125 L 0.25 0 L 0.726562 0 L 0.726562 -0.6875 L 1.097656 -0.6875 C 1.542969 -0.6875 1.875 -1.007812 1.875 -1.445312 C 1.875 -1.878906 1.539062 -2.203125 1.097656 -2.203125 Z M 1.074219 -1.125 L 0.726562 -1.125 L 0.726562 -1.757812 L 1.074219 -1.757812 C 1.265625 -1.757812 1.394531 -1.625 1.394531 -1.445312 C 1.394531 -1.261719 1.265625 -1.125 1.074219 -1.125 Z M 1.074219 -1.125 "/></g></g></g><g fill="#3a86ff" fill-opacity="1"><g transform="translate(37.51848, 22.327181)"><g><path d="M 1.460938 0 L 1.996094 0 L 1.507812 -0.832031 C 1.753906 -0.949219 1.910156 -1.183594 1.910156 -1.472656 C 1.910156 -1.898438 1.578125 -2.203125 1.136719 -2.203125 L 0.25 -2.203125 L 0.25 0 L 0.726562 0 L 0.726562 -0.75 L 1.03125 -0.75 Z M 0.726562 -1.761719 L 1.105469 -1.761719 C 1.308594 -1.761719 1.425781 -1.640625 1.425781 -1.476562 C 1.425781 -1.308594 1.308594 -1.1875 1.105469 -1.1875 L 0.726562 -1.1875 Z M 0.726562 -1.761719 "/></g></g></g><g fill="#3a86ff" fill-opacity="1"><g transform="translate(42.113018, 22.327181)"><g><path d="M 1.296875 0.0507812 C 1.964844 0.0507812 2.464844 -0.445312 2.464844 -1.101562 C 2.464844 -1.753906 1.964844 -2.25 1.296875 -2.25 C 0.621094 -2.25 0.121094 -1.753906 0.121094 -1.101562 C 0.121094 -0.445312 0.621094 0.0507812 1.296875 0.0507812 Z M 1.296875 -0.398438 C 0.902344 -0.398438 0.605469 -0.703125 0.605469 -1.101562 C 0.605469 -1.496094 0.902344 -1.800781 1.296875 -1.800781 C 1.6875 -1.800781 1.980469 -1.5 1.980469 -1.101562 C 1.980469 -0.703125 1.6875 -0.398438 1.296875 -0.398438 Z M 1.296875 -0.398438 "/></g></g></g><g fill="#3a86ff" fill-opacity="1"><g transform="translate(47.216569, 22.327181)"><g><path d="M 2.945312 0 L 2.609375 -2.203125 L 2.128906 -2.203125 L 1.53125 -0.847656 L 0.933594 -2.203125 L 0.460938 -2.203125 L 0.113281 0 L 0.597656 0 L 0.816406 -1.433594 L 1.472656 -0.00390625 L 1.589844 -0.00390625 L 2.246094 -1.433594 L 2.460938 0 Z M 2.945312 0 "/></g></g></g><g fill="#3a86ff" fill-opacity="1"><g transform="translate(52.797714, 22.327181)"><g><path d="M 1.296875 0.0507812 C 1.964844 0.0507812 2.464844 -0.445312 2.464844 -1.101562 C 2.464844 -1.753906 1.964844 -2.25 1.296875 -2.25 C 0.621094 -2.25 0.121094 -1.753906 0.121094 -1.101562 C 0.121094 -0.445312 0.621094 0.0507812 1.296875 0.0507812 Z M 1.296875 -0.398438 C 0.902344 -0.398438 0.605469 -0.703125 0.605469 -1.101562 C 0.605469 -1.496094 0.902344 -1.800781 1.296875 -1.800781 C 1.6875 -1.800781 1.980469 -1.5 1.980469 -1.101562 C 1.980469 -0.703125 1.6875 -0.398438 1.296875 -0.398438 Z M 1.296875 -0.398438 "/></g></g></g><g fill="#3a86ff" fill-opacity="1"><g transform="translate(57.901264, 22.327181)"><g><path d="M 2.332031 -0.859375 L 1.851562 -0.859375 C 1.773438 -0.582031 1.550781 -0.40625 1.261719 -0.40625 C 0.886719 -0.40625 0.605469 -0.703125 0.605469 -1.097656 C 0.605469 -1.492188 0.886719 -1.792969 1.261719 -1.792969 C 1.539062 -1.792969 1.757812 -1.628906 1.847656 -1.371094 L 2.324219 -1.371094 C 2.222656 -1.894531 1.796875 -2.25 1.261719 -2.25 C 0.613281 -2.25 0.121094 -1.753906 0.121094 -1.097656 C 0.121094 -0.5 0.535156 -0.0351562 1.101562 0.0390625 L 1.050781 0.253906 L 1.070312 0.277344 L 1.203125 0.277344 C 1.273438 0.277344 1.324219 0.320312 1.324219 0.382812 C 1.324219 0.445312 1.273438 0.492188 1.203125 0.492188 L 0.976562 0.492188 L 0.976562 0.71875 L 1.203125 0.71875 C 1.457031 0.71875 1.636719 0.589844 1.636719 0.386719 C 1.636719 0.234375 1.53125 0.132812 1.367188 0.09375 L 1.378906 0.0429688 C 1.867188 -0.0078125 2.238281 -0.355469 2.332031 -0.859375 Z M 2.332031 -0.859375 "/></g></g></g><g fill="#3a86ff" fill-opacity="1"><g transform="translate(62.841428, 22.327181)"><g><path d="M 1.515625 -2.398438 C 1.738281 -2.398438 1.878906 -2.558594 1.878906 -2.824219 L 1.878906 -2.859375 L 1.621094 -2.859375 L 1.621094 -2.832031 C 1.621094 -2.753906 1.574219 -2.703125 1.511719 -2.703125 C 1.449219 -2.703125 1.402344 -2.734375 1.347656 -2.769531 C 1.28125 -2.820312 1.203125 -2.875 1.074219 -2.875 C 0.847656 -2.875 0.710938 -2.707031 0.710938 -2.445312 L 0.710938 -2.414062 L 0.964844 -2.414062 L 0.964844 -2.4375 C 0.964844 -2.511719 1.015625 -2.5625 1.078125 -2.5625 C 1.121094 -2.5625 1.164062 -2.535156 1.21875 -2.503906 C 1.296875 -2.457031 1.386719 -2.398438 1.515625 -2.398438 Z M 1.296875 0.0507812 C 1.964844 0.0507812 2.464844 -0.445312 2.464844 -1.101562 C 2.464844 -1.753906 1.964844 -2.25 1.296875 -2.25 C 0.621094 -2.25 0.121094 -1.753906 0.121094 -1.101562 C 0.121094 -0.445312 0.621094 0.0507812 1.296875 0.0507812 Z M 1.296875 -0.398438 C 0.902344 -0.398438 0.605469 -0.703125 0.605469 -1.101562 C 0.605469 -1.496094 0.902344 -1.800781 1.296875 -1.800781 C 1.6875 -1.800781 1.980469 -1.5 1.980469 -1.101562 C 1.980469 -0.703125 1.6875 -0.398438 1.296875 -0.398438 Z M 1.296875 -0.398438 "/></g></g></g><g fill="#3a86ff" fill-opacity="1"><g transform="translate(67.944979, 22.327181)"><g><path d="M 0.726562 -0.441406 L 0.726562 -0.894531 L 1.492188 -0.894531 L 1.492188 -1.324219 L 0.726562 -1.324219 L 0.726562 -1.761719 L 1.574219 -1.761719 L 1.574219 -2.203125 L 0.25 -2.203125 L 0.25 0 L 1.605469 0 L 1.605469 -0.441406 Z M 0.726562 -0.441406 "/></g></g></g><g fill="#3a86ff" fill-opacity="1"><g transform="translate(72.219025, 22.327181)"><g><path d="M 0.980469 0.0429688 C 1.4375 0.0429688 1.816406 -0.1875 1.816406 -0.660156 C 1.816406 -1.15625 1.394531 -1.257812 1.058594 -1.34375 C 0.824219 -1.398438 0.636719 -1.445312 0.636719 -1.601562 C 0.636719 -1.746094 0.789062 -1.8125 0.945312 -1.8125 C 1.121094 -1.8125 1.28125 -1.722656 1.28125 -1.53125 L 1.75 -1.53125 C 1.75 -1.972656 1.460938 -2.242188 0.957031 -2.242188 C 0.46875 -2.242188 0.15625 -2.003906 0.15625 -1.582031 C 0.15625 -1.105469 0.558594 -1.007812 0.894531 -0.929688 C 1.132812 -0.875 1.332031 -0.828125 1.332031 -0.652344 C 1.332031 -0.492188 1.15625 -0.394531 0.976562 -0.394531 C 0.78125 -0.394531 0.605469 -0.5 0.605469 -0.710938 L 0.125 -0.710938 C 0.125 -0.238281 0.476562 0.0429688 0.980469 0.0429688 Z M 0.980469 0.0429688 "/></g></g></g></svg>