<svg xmlns="http://www.w3.org/2000/svg" xmlns:xlink="http://www.w3.org/1999/xlink" width="357" zoomAndPan="magnify" viewBox="0 0 267.75 52.499999" height="70" preserveAspectRatio="xMidYMid meet" version="1.0"><defs><g/></defs><path fill="#ffbe0b" d="M 41.667969 18.429688 C 41.082031 17.84375 40.132812 17.84375 39.550781 18.429688 C 38.964844 19.015625 38.964844 19.960938 39.550781 20.546875 L 42.304688 23.300781 C 42.890625 23.886719 43.835938 23.886719 44.421875 23.300781 C 45.007812 22.71875 45.007812 21.769531 44.421875 21.183594 L 41.667969 18.429688 " fill-opacity="1" fill-rule="nonzero"/><path fill="#ffbe0b" d="M 42.710938 27.433594 C 42.984375 27.164062 43.152344 26.789062 43.148438 26.375 C 43.148438 25.546875 42.480469 24.875 41.652344 24.875 L 37.757812 24.878906 C 36.929688 24.878906 36.257812 25.546875 36.257812 26.375 C 36.257812 27.203125 36.929688 27.875 37.757812 27.875 L 41.652344 27.875 C 42.066406 27.875 42.441406 27.707031 42.710938 27.433594 " fill-opacity="1" fill-rule="nonzero"/><path fill="#ffbe0b" d="M 42.304688 29.449219 L 39.550781 32.203125 C 38.964844 32.789062 38.964844 33.738281 39.550781 34.320312 C 40.132812 34.90625 41.082031 34.90625 41.667969 34.320312 L 44.421875 31.566406 C 45.007812 30.980469 45.007812 30.035156 44.421875 29.449219 C 43.835938 28.863281 42.890625 28.863281 42.304688 29.449219 " fill-opacity="1" fill-rule="nonzero"/><path fill="#ffbe0b" d="M 48.554688 21.589844 C 48.828125 21.320312 48.992188 20.945312 48.992188 20.53125 L 48.996094 16.636719 C 48.996094 15.808594 48.324219 15.136719 47.496094 15.136719 C 46.667969 15.136719 45.996094 15.808594 45.996094 16.636719 L 45.996094 20.53125 C 45.996094 21.359375 46.667969 22.03125 47.496094 22.03125 C 47.910156 22.03125 48.285156 21.863281 48.554688 21.589844 " fill-opacity="1" fill-rule="nonzero"/><path fill="#ffbe0b" d="M 52.6875 23.300781 L 55.441406 20.546875 C 56.027344 19.960938 56.027344 19.011719 55.441406 18.429688 C 54.855469 17.84375 53.910156 17.84375 53.324219 18.429688 L 50.570312 21.183594 C 49.984375 21.769531 49.984375 22.71875 50.570312 23.300781 C 51.152344 23.886719 52.101562 23.886719 52.6875 23.300781 " fill-opacity="1" fill-rule="nonzero"/><path fill="#ff5757" d="M 67.914062 31.503906 L 63.773438 30.144531 C 65.078125 24.539062 63.4375 18.683594 59.3125 14.558594 C 52.796875 8.042969 42.195312 8.042969 35.679688 14.558594 C 29.164062 21.074219 29.164062 31.675781 35.679688 38.191406 C 39.804688 42.316406 45.660156 43.957031 51.265625 42.652344 L 52.625 46.792969 C 45.453125 48.601562 37.902344 46.546875 32.613281 41.257812 C 24.40625 33.050781 24.40625 19.699219 32.613281 11.492188 C 40.820312 3.285156 54.171875 3.285156 62.378906 11.492188 C 67.667969 16.78125 69.722656 24.332031 67.914062 31.503906 Z M 46.070312 26.84375 L 50.324219 39.789062 C 45.804688 40.75 41.117188 39.394531 37.796875 36.074219 C 32.449219 30.726562 32.449219 22.023438 37.796875 16.675781 C 43.144531 11.328125 51.847656 11.328125 57.195312 16.675781 C 60.515625 19.996094 61.871094 24.683594 60.910156 29.207031 L 47.964844 24.953125 C 46.800781 24.570312 45.6875 25.675781 46.070312 26.84375 Z M 61.960938 35.855469 C 61.121094 36.359375 60.984375 37.515625 61.671875 38.203125 L 65.445312 41.976562 L 63.097656 44.324219 L 59.324219 40.550781 C 58.636719 39.863281 57.480469 40 56.976562 40.84375 L 54.945312 44.246094 L 49.84375 28.722656 L 65.367188 33.824219 Z M 64.496094 9.371094 C 55.125 0 39.867188 0 30.492188 9.375 C 21.117188 18.75 21.117188 34.003906 30.492188 43.378906 C 36.863281 49.75 46.109375 52.003906 54.695312 49.3125 C 55.652344 48.980469 55.542969 49.085938 58.5625 44.03125 L 62.039062 47.503906 C 62.625 48.089844 63.574219 48.089844 64.15625 47.503906 L 68.625 43.039062 C 69.210938 42.453125 69.210938 41.503906 68.625 40.917969 L 65.148438 37.441406 C 70.007812 34.601562 70.128906 34.519531 70.433594 33.574219 C 73.121094 24.988281 70.867188 15.742188 64.496094 9.371094 " fill-opacity="1" fill-rule="nonzero"/><g fill="#000e4d" fill-opacity="1"><g transform="translate(73.125403, 32.26125)"><g><path d="M 8.035156 -16.113281 L 1.839844 -16.113281 L 1.839844 0 L 5.316406 0 L 5.316406 -5.019531 L 8.035156 -5.019531 C 11.28125 -5.019531 13.71875 -7.390625 13.71875 -10.566406 C 13.71875 -13.742188 11.257812 -16.113281 8.035156 -16.113281 Z M 7.875 -8.242188 L 5.316406 -8.242188 L 5.316406 -12.867188 L 7.875 -12.867188 C 9.253906 -12.867188 10.199219 -11.902344 10.199219 -10.566406 C 10.199219 -9.230469 9.253906 -8.242188 7.875 -8.242188 Z M 7.875 -8.242188 "/></g></g></g><g fill="#000e4d" fill-opacity="1"><g transform="translate(89.792164, 32.26125)"><g><path d="M 7.964844 -12.5 C 6.355469 -12.5 5.25 -11.992188 4.351562 -10.890625 L 3.753906 -12.429688 L 1.613281 -12.429688 L 1.613281 0 L 4.972656 0 L 4.972656 -6.445312 C 4.972656 -8.472656 5.710938 -9.324219 7.597656 -9.324219 L 9.070312 -9.324219 L 9.070312 -12.5 Z M 7.964844 -12.5 "/></g></g></g><g fill="#000e4d" fill-opacity="1"><g transform="translate(101.50977, 32.26125)"><g><path d="M 7.503906 0.367188 C 11.347656 0.367188 14.226562 -2.464844 14.226562 -6.214844 C 14.226562 -9.96875 11.347656 -12.777344 7.503906 -12.777344 C 3.660156 -12.777344 0.78125 -9.96875 0.78125 -6.214844 C 0.78125 -2.464844 3.660156 0.367188 7.503906 0.367188 Z M 7.503906 -2.808594 C 5.570312 -2.808594 4.191406 -4.191406 4.191406 -6.214844 C 4.191406 -8.21875 5.570312 -9.621094 7.503906 -9.621094 C 9.4375 -9.621094 10.820312 -8.21875 10.820312 -6.214844 C 10.820312 -4.191406 9.4375 -2.808594 7.503906 -2.808594 Z M 7.503906 -2.808594 "/></g></g></g><g fill="#000e4d" fill-opacity="1"><g transform="translate(118.890129, 32.26125)"><g><path d="M 15.746094 -12.707031 C 14.15625 -12.707031 12.753906 -11.925781 11.902344 -10.726562 C 11.164062 -11.972656 9.875 -12.707031 8.289062 -12.707031 C 6.8125 -12.707031 5.457031 -11.992188 4.582031 -10.890625 L 3.960938 -12.429688 L 1.613281 -12.429688 L 1.613281 0 L 4.972656 0 L 4.972656 -6.722656 C 4.972656 -8.65625 5.871094 -9.761719 7.390625 -9.761719 C 8.585938 -9.761719 9.230469 -8.886719 9.230469 -7.230469 L 9.230469 0 L 12.5 0 L 12.5 -6.722656 C 12.5 -8.65625 13.398438 -9.761719 14.894531 -9.761719 C 16.113281 -9.761719 16.757812 -8.886719 16.757812 -7.230469 L 16.757812 0 L 20.121094 0 L 20.121094 -7.78125 C 20.121094 -10.703125 18.324219 -12.707031 15.746094 -12.707031 Z M 15.746094 -12.707031 "/></g></g></g><g fill="#000e4d" fill-opacity="1"><g transform="translate(142.830999, 32.26125)"><g><path d="M 7.503906 0.367188 C 11.347656 0.367188 14.226562 -2.464844 14.226562 -6.214844 C 14.226562 -9.96875 11.347656 -12.777344 7.503906 -12.777344 C 3.660156 -12.777344 0.78125 -9.96875 0.78125 -6.214844 C 0.78125 -2.464844 3.660156 0.367188 7.503906 0.367188 Z M 7.503906 -2.808594 C 5.570312 -2.808594 4.191406 -4.191406 4.191406 -6.214844 C 4.191406 -8.21875 5.570312 -9.621094 7.503906 -9.621094 C 9.4375 -9.621094 10.820312 -8.21875 10.820312 -6.214844 C 10.820312 -4.191406 9.4375 -2.808594 7.503906 -2.808594 Z M 7.503906 -2.808594 "/></g></g></g><g fill="#000e4d" fill-opacity="1"><g transform="translate(160.211357, 32.26125)"><g><path d="M 9.230469 0.367188 C 13.214844 0.367188 16.34375 -2.300781 17.082031 -6.285156 L 13.558594 -6.285156 C 12.984375 -4.257812 11.347656 -2.96875 9.230469 -2.96875 C 6.492188 -2.96875 4.441406 -5.132812 4.441406 -8.035156 C 4.441406 -10.933594 6.492188 -13.121094 9.230469 -13.121094 C 11.257812 -13.121094 12.867188 -11.925781 13.535156 -10.039062 L 17.011719 -10.039062 C 16.277344 -13.859375 13.144531 -16.460938 9.230469 -16.460938 C 4.488281 -16.460938 0.898438 -12.824219 0.898438 -8.035156 C 0.898438 -3.269531 4.488281 0.367188 9.230469 0.367188 Z M 9.230469 0.367188 "/></g></g></g><g fill="#000e4d" fill-opacity="1"><g transform="translate(180.308003, 32.26125)"><g><path d="M 1.613281 0 L 4.972656 0 L 4.972656 -16.898438 L 1.613281 -16.898438 Z M 1.613281 0 "/></g></g></g><g fill="#000e4d" fill-opacity="1"><g transform="translate(189.240271, 32.26125)"><g><path d="M 1.613281 -14.089844 L 4.949219 -14.089844 L 4.949219 -17.195312 L 1.613281 -17.195312 Z M 1.613281 0 L 4.972656 0 L 4.972656 -12.429688 L 1.613281 -12.429688 Z M 1.613281 0 "/></g></g></g><g fill="#000e4d" fill-opacity="1"><g transform="translate(198.17254, 32.26125)"><g><path d="M 11.855469 -12.429688 L 11.28125 -11.28125 C 10.222656 -12.222656 8.839844 -12.777344 7.296875 -12.777344 C 3.546875 -12.777344 0.78125 -9.96875 0.78125 -6.191406 C 0.78125 -2.417969 3.546875 0.390625 7.296875 0.390625 C 8.585938 0.390625 9.761719 0 10.726562 -0.667969 L 10.726562 4.488281 L 14.089844 4.488281 L 14.089844 -12.410156 Z M 7.574219 -2.785156 C 5.617188 -2.785156 4.191406 -4.257812 4.191406 -6.191406 C 4.191406 -8.148438 5.617188 -9.601562 7.574219 -9.601562 C 9.53125 -9.601562 10.957031 -8.148438 10.957031 -6.191406 C 10.957031 -4.257812 9.53125 -2.785156 7.574219 -2.785156 Z M 7.574219 -2.785156 "/></g></g></g><g fill="#000e4d" fill-opacity="1"><g transform="translate(216.220461, 32.26125)"><g><path d="M 7.273438 0.367188 C 10.796875 0.367188 13.121094 -1.886719 13.121094 -5.25 L 13.121094 -12.429688 L 9.761719 -12.429688 L 9.761719 -5.617188 C 9.761719 -3.867188 8.839844 -2.808594 7.273438 -2.808594 C 5.730469 -2.808594 4.789062 -3.84375 4.789062 -5.617188 L 4.789062 -12.429688 L 1.425781 -12.429688 L 1.425781 -5.25 C 1.425781 -1.886719 3.777344 0.367188 7.273438 0.367188 Z M 7.273438 0.367188 "/></g></g></g><g fill="#000e4d" fill-opacity="1"><g transform="translate(233.140436, 32.26125)"><g><path d="M 13.675781 -6.238281 C 13.675781 -9.828125 11.050781 -12.777344 7.230469 -12.777344 C 3.546875 -12.777344 0.78125 -9.945312 0.78125 -6.214844 C 0.78125 -2.484375 3.566406 0.367188 7.230469 0.367188 C 10.128906 0.367188 12.5 -1.359375 13.398438 -4.074219 L 9.875 -4.074219 C 9.371094 -3.175781 8.402344 -2.625 7.230469 -2.625 C 5.59375 -2.625 4.488281 -3.566406 4.191406 -5.273438 L 13.605469 -5.273438 C 13.652344 -5.59375 13.675781 -5.917969 13.675781 -6.238281 Z M 7.230469 -9.898438 C 8.746094 -9.898438 9.828125 -9.070312 10.3125 -7.550781 L 4.28125 -7.550781 C 4.671875 -9.023438 5.730469 -9.898438 7.230469 -9.898438 Z M 7.230469 -9.898438 "/></g></g></g><g fill="#000e4d" fill-opacity="1"><g transform="translate(249.945308, 32.26125)"><g><path d="M 6.007812 0.367188 C 9.164062 0.367188 11.234375 -1.289062 11.234375 -3.820312 C 11.234375 -6.859375 8.632812 -7.273438 6.605469 -7.644531 C 5.316406 -7.875 4.257812 -8.082031 4.257812 -8.910156 C 4.257812 -9.621094 4.878906 -10.082031 5.917969 -10.082031 C 7.089844 -10.082031 7.78125 -9.601562 7.804688 -8.609375 L 11.003906 -8.609375 C 10.980469 -11.097656 9 -12.777344 6.007812 -12.777344 C 3.015625 -12.777344 1.011719 -11.140625 1.011719 -8.792969 C 1.011719 -5.871094 3.546875 -5.339844 5.523438 -4.996094 C 6.835938 -4.789062 7.917969 -4.535156 7.917969 -3.683594 C 7.917969 -2.855469 7.066406 -2.417969 6.148438 -2.417969 C 4.949219 -2.417969 4.097656 -2.96875 4.074219 -4.074219 L 0.804688 -4.074219 C 0.804688 -1.425781 2.902344 0.367188 6.007812 0.367188 Z M 6.007812 0.367188 "/></g></g></g><g fill="#3a86ff" fill-opacity="1"><g transform="translate(74.142774, 43.738889)"><g><path d="M 3.441406 -6.898438 L 0.789062 -6.898438 L 0.789062 0 L 2.277344 0 L 2.277344 -2.148438 L 3.441406 -2.148438 C 4.828125 -2.148438 5.875 -3.164062 5.875 -4.523438 C 5.875 -5.882812 4.820312 -6.898438 3.441406 -6.898438 Z M 3.371094 -3.527344 L 2.277344 -3.527344 L 2.277344 -5.507812 L 3.371094 -5.507812 C 3.960938 -5.507812 4.367188 -5.09375 4.367188 -4.523438 C 4.367188 -3.953125 3.960938 -3.527344 3.371094 -3.527344 Z M 3.371094 -3.527344 "/></g></g></g><g fill="#3a86ff" fill-opacity="1"><g transform="translate(88.155691, 43.738889)"><g><path d="M 4.582031 0 L 6.25 0 L 4.722656 -2.601562 C 5.488281 -2.976562 5.984375 -3.707031 5.984375 -4.613281 C 5.984375 -5.941406 4.949219 -6.898438 3.566406 -6.898438 L 0.789062 -6.898438 L 0.789062 0 L 2.277344 0 L 2.277344 -2.347656 L 3.234375 -2.347656 Z M 2.277344 -5.519531 L 3.46875 -5.519531 C 4.101562 -5.519531 4.464844 -5.136719 4.464844 -4.621094 C 4.464844 -4.101562 4.101562 -3.726562 3.46875 -3.726562 L 2.277344 -3.726562 Z M 2.277344 -5.519531 "/></g></g></g><g fill="#3a86ff" fill-opacity="1"><g transform="translate(102.552586, 43.738889)"><g><path d="M 4.0625 0.15625 C 6.160156 0.15625 7.726562 -1.390625 7.726562 -3.449219 C 7.726562 -5.5 6.160156 -7.046875 4.0625 -7.046875 C 1.953125 -7.046875 0.375 -5.488281 0.375 -3.449219 C 0.375 -1.398438 1.953125 0.15625 4.0625 0.15625 Z M 4.0625 -1.25 C 2.828125 -1.25 1.890625 -2.207031 1.890625 -3.449219 C 1.890625 -4.691406 2.828125 -5.636719 4.0625 -5.636719 C 5.292969 -5.636719 6.210938 -4.703125 6.210938 -3.449219 C 6.210938 -2.199219 5.292969 -1.25 4.0625 -1.25 Z M 4.0625 -1.25 "/></g></g></g><g fill="#3a86ff" fill-opacity="1"><g transform="translate(118.544465, 43.738889)"><g><path d="M 9.234375 0 L 8.171875 -6.898438 L 6.671875 -6.898438 L 4.800781 -2.660156 L 2.925781 -6.898438 L 1.4375 -6.898438 L 0.355469 0 L 1.871094 0 L 2.550781 -4.496094 L 4.613281 -0.0117188 L 4.976562 -0.0117188 L 7.039062 -4.496094 L 7.71875 0 Z M 9.234375 0 "/></g></g></g><g fill="#3a86ff" fill-opacity="1"><g transform="translate(136.032875, 43.738889)"><g><path d="M 4.0625 0.15625 C 6.160156 0.15625 7.726562 -1.390625 7.726562 -3.449219 C 7.726562 -5.5 6.160156 -7.046875 4.0625 -7.046875 C 1.953125 -7.046875 0.375 -5.488281 0.375 -3.449219 C 0.375 -1.398438 1.953125 0.15625 4.0625 0.15625 Z M 4.0625 -1.25 C 2.828125 -1.25 1.890625 -2.207031 1.890625 -3.449219 C 1.890625 -4.691406 2.828125 -5.636719 4.0625 -5.636719 C 5.292969 -5.636719 6.210938 -4.703125 6.210938 -3.449219 C 6.210938 -2.199219 5.292969 -1.25 4.0625 -1.25 Z M 4.0625 -1.25 "/></g></g></g><g fill="#3a86ff" fill-opacity="1"><g transform="translate(152.024751, 43.738889)"><g><path d="M 7.3125 -2.691406 L 5.804688 -2.691406 C 5.558594 -1.824219 4.859375 -1.269531 3.953125 -1.269531 C 2.78125 -1.269531 1.902344 -2.199219 1.902344 -3.441406 C 1.902344 -4.679688 2.78125 -5.617188 3.953125 -5.617188 C 4.820312 -5.617188 5.507812 -5.105469 5.796875 -4.296875 L 7.285156 -4.296875 C 6.96875 -5.933594 5.628906 -7.046875 3.953125 -7.046875 C 1.921875 -7.046875 0.382812 -5.488281 0.382812 -3.441406 C 0.382812 -1.566406 1.675781 -0.109375 3.449219 0.117188 L 3.292969 0.796875 L 3.351562 0.867188 L 3.765625 0.867188 C 3.992188 0.867188 4.148438 1.003906 4.148438 1.203125 C 4.148438 1.398438 3.992188 1.539062 3.765625 1.539062 L 3.066406 1.539062 L 3.066406 2.257812 L 3.773438 2.257812 C 4.5625 2.257812 5.125 1.84375 5.125 1.210938 C 5.125 0.738281 4.800781 0.414062 4.289062 0.296875 L 4.328125 0.136719 C 5.855469 -0.0195312 7.015625 -1.113281 7.3125 -2.691406 Z M 7.3125 -2.691406 "/></g></g></g><g fill="#3a86ff" fill-opacity="1"><g transform="translate(167.504661, 43.738889)"><g><path d="M 4.75 -7.511719 C 5.449219 -7.511719 5.882812 -8.023438 5.882812 -8.851562 L 5.882812 -8.960938 L 5.085938 -8.960938 L 5.085938 -8.871094 C 5.085938 -8.625 4.9375 -8.464844 4.730469 -8.464844 C 4.542969 -8.464844 4.394531 -8.566406 4.226562 -8.683594 C 4.011719 -8.839844 3.765625 -9.007812 3.371094 -9.007812 C 2.652344 -9.007812 2.226562 -8.484375 2.226562 -7.667969 L 2.226562 -7.558594 L 3.027344 -7.558594 L 3.027344 -7.636719 C 3.027344 -7.875 3.183594 -8.03125 3.378906 -8.03125 C 3.507812 -8.03125 3.648438 -7.945312 3.8125 -7.84375 C 4.0625 -7.699219 4.347656 -7.511719 4.75 -7.511719 Z M 4.0625 0.15625 C 6.160156 0.15625 7.726562 -1.390625 7.726562 -3.449219 C 7.726562 -5.5 6.160156 -7.046875 4.0625 -7.046875 C 1.953125 -7.046875 0.375 -5.488281 0.375 -3.449219 C 0.375 -1.398438 1.953125 0.15625 4.0625 0.15625 Z M 4.0625 -1.25 C 2.828125 -1.25 1.890625 -2.207031 1.890625 -3.449219 C 1.890625 -4.691406 2.828125 -5.636719 4.0625 -5.636719 C 5.292969 -5.636719 6.210938 -4.703125 6.210938 -3.449219 C 6.210938 -2.199219 5.292969 -1.25 4.0625 -1.25 Z M 4.0625 -1.25 "/></g></g></g><g fill="#3a86ff" fill-opacity="1"><g transform="translate(183.496537, 43.738889)"><g><path d="M 2.277344 -1.378906 L 2.277344 -2.800781 L 4.671875 -2.800781 L 4.671875 -4.148438 L 2.277344 -4.148438 L 2.277344 -5.519531 L 4.929688 -5.519531 L 4.929688 -6.898438 L 0.789062 -6.898438 L 0.789062 0 L 5.035156 0 L 5.035156 -1.378906 Z M 2.277344 -1.378906 "/></g></g></g><g fill="#3a86ff" fill-opacity="1"><g transform="translate(196.889178, 43.738889)"><g><path d="M 3.074219 0.136719 C 4.503906 0.136719 5.6875 -0.582031 5.6875 -2.070312 C 5.6875 -3.617188 4.367188 -3.941406 3.320312 -4.207031 C 2.582031 -4.386719 1.992188 -4.535156 1.992188 -5.015625 C 1.992188 -5.46875 2.472656 -5.675781 2.957031 -5.675781 C 3.519531 -5.675781 4.011719 -5.402344 4.011719 -4.800781 L 5.480469 -4.800781 C 5.480469 -6.179688 4.582031 -7.027344 2.996094 -7.027344 C 1.46875 -7.027344 0.492188 -6.277344 0.492188 -4.957031 C 0.492188 -3.46875 1.753906 -3.164062 2.800781 -2.90625 C 3.546875 -2.738281 4.179688 -2.59375 4.179688 -2.050781 C 4.179688 -1.539062 3.628906 -1.242188 3.066406 -1.242188 C 2.453125 -1.242188 1.902344 -1.566406 1.902344 -2.226562 L 0.394531 -2.226562 C 0.394531 -0.75 1.488281 0.136719 3.074219 0.136719 Z M 3.074219 0.136719 "/></g></g></g></svg>